<svg id="evOS2fFR5HA1" xmlns="http://www.w3.org/2000/svg" xmlns:xlink="http://www.w3.org/1999/xlink" viewBox="0 0 300 300" shape-rendering="geometricPrecision" text-rendering="geometricPrecision"><path d="M0,115.90562C0,51.89271,51.89271,0,115.90562,0s115.90562,51.89271,115.90562,115.90562c0,26.02916-8.58008,50.05433-23.06625,69.40152l85.83733,80.94027c8.66085,9.74115,5.82952,22.13993,0,27.36888-5.92515,8.34084-18.82811,8.69161-25.85993,0L181.566,211.43221c-18.665,12.85392-41.28389,20.37903-65.66037,20.37903-64.01291,0-115.90562-51.89271-115.90562-115.90562h-.00001Zm116.02646,84.42333c46.62572,0,84.42333-37.79761,84.42333-84.42333s-37.79761-84.42333-84.42333-84.42333-84.42333,37.79761-84.42333,84.42333s37.79761,84.42333,84.42333,84.42333Z" transform="translate(.000001 0.000001)" stroke-width="50" stroke-linecap="square" stroke-miterlimit="30"/></svg>
